<svg width="80" height="64" viewBox="0 0 80 64" fill="none" xmlns="http://www.w3.org/2000/svg">
<circle cx="39" cy="44" r="20" fill="#6485F9"/>
<circle cx="39" cy="44" r="15" fill="white"/>
<circle cx="39" cy="44" r="10" fill="#6485F9"/>
<path d="M66.2102 36.4545V51H64.5341V36.4545H66.2102ZM72.4904 51.2557C71.7991 51.2557 71.1718 51.1255 70.6083 50.8651C70.0449 50.5999 69.5974 50.2188 69.266 49.7216C68.9345 49.2197 68.7688 48.6136 68.7688 47.9034C68.7688 47.2784 68.8919 46.7718 69.1381 46.3835C69.3844 45.9905 69.7134 45.6828 70.1254 45.4602C70.5373 45.2377 70.9918 45.072 71.489 44.9631C71.9909 44.8494 72.4951 44.7595 73.0018 44.6932C73.6647 44.608 74.2021 44.544 74.614 44.5014C75.0307 44.4541 75.3337 44.3759 75.5231 44.267C75.7172 44.1581 75.8143 43.9687 75.8143 43.6989V43.642C75.8143 42.9413 75.6225 42.3968 75.239 42.0085C74.8602 41.6203 74.2849 41.4261 73.5131 41.4261C72.7129 41.4261 72.0856 41.6013 71.631 41.9517C71.1765 42.3021 70.8569 42.6761 70.6722 43.0739L69.0813 42.5057C69.3654 41.8428 69.7442 41.3267 70.2177 40.9574C70.6959 40.5833 71.2167 40.3229 71.7802 40.1761C72.3484 40.0246 72.9071 39.9489 73.4563 39.9489C73.8067 39.9489 74.2092 39.9915 74.6637 40.0767C75.123 40.1572 75.5657 40.3253 75.9918 40.581C76.4227 40.8366 76.7802 41.2225 77.0643 41.7386C77.3484 42.2547 77.4904 42.946 77.4904 43.8125V51H75.8143V49.5227H75.729C75.6154 49.7595 75.426 50.0128 75.1609 50.2827C74.8957 50.5526 74.543 50.7822 74.1026 50.9716C73.6623 51.161 73.1249 51.2557 72.4904 51.2557ZM72.7461 49.75C73.409 49.75 73.9677 49.6198 74.4222 49.3594C74.8815 49.099 75.2272 48.7628 75.4592 48.3509C75.6959 47.9389 75.8143 47.5057 75.8143 47.0511V45.517C75.7433 45.6023 75.587 45.6804 75.3455 45.7514C75.1088 45.8177 74.8342 45.8769 74.5217 45.929C74.2139 45.9763 73.9132 46.0189 73.6197 46.0568C73.3308 46.09 73.0965 46.1184 72.9165 46.142C72.4809 46.1989 72.0737 46.2912 71.695 46.419C71.3209 46.5421 71.0179 46.7292 70.7859 46.9801C70.5586 47.2263 70.445 47.5625 70.445 47.9886C70.445 48.571 70.6604 49.0114 71.0913 49.3097C71.5269 49.6032 72.0785 49.75 72.7461 49.75Z" fill="white"/>
<path d="M1.76136 51V36.4545H3.52273V42.9318H11.2784V36.4545H13.0398V51H11.2784V44.4943H3.52273V51H1.76136Z" fill="white"/>
<g clip-path="url(#clip0_12_54)">
<mask id="mask0_12_54" style="mask-type:luminance" maskUnits="userSpaceOnUse" x="19" y="0" width="40" height="40">
<path d="M59 0H19V40H59V0Z" fill="white"/>
</mask>
<g mask="url(#mask0_12_54)">
<path d="M30.6667 20C30.6667 20 32.0556 15 39 15C45.9445 15 47.3334 20 47.3334 20" stroke="white" stroke-width="2" stroke-linecap="round" stroke-linejoin="round"/>
<path d="M27.3333 16.6667C27.3333 16.6667 29.2778 10 39 10C48.7222 10 50.6667 16.6667 50.6667 16.6667" stroke="white" stroke-width="2" stroke-linecap="round" stroke-linejoin="round"/>
</g>
</g>
<defs>
<clipPath id="clip0_12_54">
<rect width="40" height="40" fill="white" transform="translate(19)"/>
</clipPath>
</defs>
</svg>
